<svg xmlns="http://www.w3.org/2000/svg" width="16" height="11.909" viewBox="0 0 16 11.909">
  <g id="free_shipping" transform="translate(8030 15717.5)">
    <path id="Icon_material-local-shipping" data-name="Icon material-local-shipping" d="M14.455,8.727H12.409V6H2.864A1.368,1.368,0,0,0,1.5,7.364v7.5H2.864a2.045,2.045,0,0,0,4.091,0h4.091a2.045,2.045,0,0,0,4.091,0H16.5V11.454ZM4.909,15.886a1.021,1.021,0,1,1,.724-.3A1.023,1.023,0,0,1,4.909,15.886Zm9.2-6.136,1.336,1.7H12.409V9.75Zm-1.023,6.136a1.021,1.021,0,1,1,.724-.3A1.023,1.023,0,0,1,13.091,15.886Z" transform="translate(-8031 -15723)" fill="none" stroke="#000" stroke-width="1"/>
  </g>
</svg>
