<?xml version="1.0" encoding="UTF-8"?>
<svg xmlns="http://www.w3.org/2000/svg" xmlns:xlink="http://www.w3.org/1999/xlink" width="304px" height="283px" viewBox="0 0 303 283" version="1.1">
<g id="surface1">
<path style=" stroke:none;fill-rule:nonzero;fill:rgb(94.901961%,94.901961%,94.901961%);fill-opacity:1;" d="M 204.171875 200.800781 L 95.515625 200.800781 C 86.382812 200.800781 78.953125 193.347656 78.953125 184.1875 L 78.953125 75.214844 C 78.953125 66.054688 86.382812 58.605469 95.515625 58.605469 L 204.171875 58.605469 C 213.304688 58.605469 220.738281 66.054688 220.738281 75.214844 L 220.738281 184.1875 C 220.738281 193.347656 213.304688 200.800781 204.171875 200.800781 Z M 95.515625 61.261719 C 87.832031 61.261719 81.601562 67.507812 81.601562 75.214844 L 81.601562 184.1875 C 81.601562 191.894531 87.832031 198.144531 95.515625 198.144531 L 171.628906 198.144531 C 197.285156 198.144531 218.085938 177.28125 218.085938 151.550781 L 218.085938 75.214844 C 218.085938 67.507812 211.855469 61.261719 204.171875 61.261719 Z M 95.515625 61.261719 "/>
<path style=" stroke:none;fill-rule:nonzero;fill:rgb(94.901961%,94.901961%,94.901961%);fill-opacity:1;" d="M 107.230469 72.59375 C 102.085938 72.59375 97.902344 76.789062 97.902344 81.949219 L 97.902344 96.585938 C 97.902344 101.746094 102.085938 105.941406 107.230469 105.941406 L 121.828125 105.941406 C 126.96875 105.941406 131.152344 101.746094 131.152344 96.585938 L 131.152344 81.949219 C 131.152344 76.789062 126.96875 72.59375 121.828125 72.59375 Z M 107.230469 72.59375 "/>
<path style=" stroke:none;fill-rule:nonzero;fill:rgb(94.901961%,94.901961%,94.901961%);fill-opacity:1;" d="M 107.230469 113.808594 C 102.085938 113.808594 97.902344 118.003906 97.902344 123.160156 L 97.902344 137.800781 C 97.902344 142.957031 102.085938 147.15625 107.230469 147.15625 L 121.828125 147.15625 C 126.96875 147.15625 131.152344 142.957031 131.152344 137.800781 L 131.152344 123.160156 C 131.152344 118.003906 126.96875 113.808594 121.828125 113.808594 Z M 107.230469 113.808594 "/>
<path style=" stroke:none;fill-rule:nonzero;fill:rgb(94.901961%,94.901961%,94.901961%);fill-opacity:1;" d="M 107.230469 155.019531 C 102.085938 155.019531 97.902344 159.21875 97.902344 164.375 L 97.902344 179.015625 C 97.902344 184.171875 102.085938 188.367188 107.230469 188.367188 L 121.828125 188.367188 C 126.96875 188.367188 131.152344 184.171875 131.152344 179.015625 L 131.152344 164.375 C 131.152344 159.21875 126.96875 155.019531 121.828125 155.019531 Z M 107.230469 155.019531 "/>
<path style=" stroke:none;fill-rule:nonzero;fill:rgb(20.392157%,51.372549%,98.039216%);fill-opacity:1;" d="M 116.910156 36.875 C 110.429688 36.875 105.160156 42.164062 105.160156 48.660156 L 105.160156 67.109375 C 105.160156 73.605469 110.429688 78.894531 116.910156 78.894531 L 135.304688 78.894531 C 141.785156 78.894531 147.054688 73.605469 147.054688 67.109375 L 147.054688 48.660156 C 147.054688 42.164062 141.785156 36.875 135.304688 36.875 Z M 116.910156 36.875 "/>
<path style=" stroke:none;fill-rule:nonzero;fill:rgb(20.392157%,51.372549%,98.039216%);fill-opacity:1;" d="M 177.464844 88.425781 C 170.984375 88.425781 165.714844 93.714844 165.714844 100.210938 L 165.714844 118.660156 C 165.714844 125.160156 170.984375 130.445312 177.464844 130.445312 L 195.859375 130.445312 C 202.339844 130.445312 207.609375 125.160156 207.609375 118.660156 L 207.609375 100.210938 C 207.609375 93.714844 202.339844 88.425781 195.859375 88.425781 Z M 177.464844 88.425781 "/>
<path style=" stroke:none;fill-rule:nonzero;fill:rgb(62.745098%,38.039216%,41.568627%);fill-opacity:1;" d="M 151.140625 274.101562 L 147.402344 274.070312 L 145.75 259.277344 L 151.265625 259.324219 Z M 151.140625 274.101562 "/>
<path style=" stroke:none;fill-rule:nonzero;fill:rgb(18.431373%,18.039216%,25.490196%);fill-opacity:1;" d="M 139.171875 280.0625 C 139.164062 280.984375 139.902344 281.742188 140.828125 281.75 L 148.257812 281.8125 L 149.558594 279.167969 L 150.035156 281.828125 L 152.839844 281.851562 L 152.128906 272.375 L 151.15625 272.308594 L 147.175781 272.035156 L 145.894531 271.949219 L 145.871094 274.628906 L 139.902344 278.691406 C 139.449219 279 139.175781 279.511719 139.171875 280.0625 Z M 139.171875 280.0625 "/>
<path style=" stroke:none;fill-rule:nonzero;fill:rgb(62.745098%,38.039216%,41.568627%);fill-opacity:1;" d="M 170.152344 274.101562 L 166.414062 274.070312 L 164.761719 259.277344 L 170.277344 259.324219 Z M 170.152344 274.101562 "/>
<path style=" stroke:none;fill-rule:nonzero;fill:rgb(18.431373%,18.039216%,25.490196%);fill-opacity:1;" d="M 158.183594 280.0625 C 158.175781 280.984375 158.914062 281.742188 159.839844 281.75 L 167.269531 281.8125 L 168.570312 279.167969 L 169.046875 281.828125 L 171.847656 281.851562 L 171.140625 272.375 L 170.167969 272.308594 L 166.1875 272.035156 L 164.90625 271.949219 L 164.882812 274.628906 L 158.914062 278.691406 C 158.460938 279 158.1875 279.511719 158.183594 280.0625 Z M 158.183594 280.0625 "/>
<path style=" stroke:none;fill-rule:nonzero;fill:rgb(18.431373%,18.039216%,25.490196%);fill-opacity:1;" d="M 136.476562 154.511719 L 151.621094 154.992188 L 165.972656 158.1875 C 165.972656 158.1875 164.539062 159.949219 169.320312 164.746094 C 169.320312 164.746094 175.699219 175.9375 171.234375 186.8125 L 169.320312 230.304688 C 169.320312 230.304688 174.898438 260.964844 170.636719 270.722656 L 165.003906 271.074219 L 155.472656 230.65625 L 150.824219 187.132812 L 148.59375 229.984375 C 148.59375 229.984375 157.132812 259.398438 151.742188 271.074219 L 145.640625 270.722656 L 135.199219 229.984375 C 135.199219 229.984375 130.738281 182.972656 131.375 174.019531 C 132.011719 165.066406 136.476562 154.511719 136.476562 154.511719 Z M 136.476562 154.511719 "/>
<path style=" stroke:none;fill-rule:nonzero;fill:rgb(62.745098%,38.039216%,41.568627%);fill-opacity:1;" d="M 187.339844 85.785156 C 185.269531 86.324219 184.027344 88.441406 184.5625 90.519531 C 184.808594 91.472656 185.386719 92.246094 186.140625 92.757812 L 186.140625 92.761719 L 185.847656 99.898438 L 191.289062 102.425781 L 191.726562 91.445312 L 191.6875 91.445312 C 192.160156 90.601562 192.324219 89.582031 192.0625 88.574219 C 191.527344 86.496094 189.414062 85.25 187.339844 85.785156 Z M 187.339844 85.785156 "/>
<path style=" stroke:none;fill-rule:nonzero;fill:rgb(24.705882%,23.921569%,33.72549%);fill-opacity:1;" d="M 156.914062 111.25 C 155.769531 110.113281 155.105469 108.574219 155.082031 106.898438 C 155.046875 104.648438 156.171875 102.605469 158.085938 101.4375 C 160.292969 100.089844 163.050781 100.226562 165.113281 101.785156 L 182.210938 114.695312 L 185.257812 96.097656 L 191.796875 98.207031 L 190.234375 122.425781 C 190.125 124.117188 189.171875 125.609375 187.683594 126.417969 C 186.191406 127.222656 184.425781 127.203125 182.953125 126.363281 L 158.246094 112.265625 C 157.75 111.980469 157.304688 111.640625 156.914062 111.25 Z M 156.914062 111.25 "/>
<path style=" stroke:none;fill-rule:nonzero;fill:rgb(62.745098%,38.039216%,41.568627%);fill-opacity:1;" d="M 130.84375 75.382812 C 131.9375 77.226562 131.332031 79.609375 129.492188 80.707031 C 128.652344 81.210938 127.695312 81.351562 126.804688 81.183594 L 126.800781 81.1875 L 122 86.460938 L 116.359375 84.410156 L 123.757812 76.304688 L 123.785156 76.332031 C 124.042969 75.402344 124.640625 74.5625 125.535156 74.03125 C 127.375 72.933594 129.75 73.539062 130.84375 75.382812 Z M 130.84375 75.382812 "/>
<path style=" stroke:none;fill-rule:nonzero;fill:rgb(24.705882%,23.921569%,33.72549%);fill-opacity:1;" d="M 132.917969 114.730469 L 105.472656 107.296875 C 103.839844 106.855469 102.570312 105.621094 102.078125 103.996094 C 101.585938 102.371094 101.957031 100.640625 103.066406 99.359375 L 118.960938 81.058594 L 125.085938 84.179688 L 114.195312 99.535156 L 135.398438 102.441406 C 137.957031 102.789062 140.011719 104.640625 140.632812 107.15625 C 141.171875 109.339844 140.535156 111.582031 138.933594 113.15625 C 137.738281 114.328125 136.183594 114.953125 134.574219 114.953125 C 134.023438 114.953125 133.46875 114.882812 132.917969 114.730469 Z M 132.917969 114.730469 "/>
<path style=" stroke:none;fill-rule:nonzero;fill:rgb(24.705882%,23.921569%,33.72549%);fill-opacity:1;" d="M 172.039062 160.910156 L 133.664062 162.675781 C 132.613281 161.070312 132.898438 158.65625 134.375 155.632812 C 139.945312 144.222656 135.714844 122.632812 132.867188 111.390625 C 132.066406 108.238281 134.210938 105.101562 137.441406 104.777344 L 141.058594 104.414062 L 144.402344 94.175781 L 156.117188 94.175781 L 160.976562 99.742188 L 169.222656 104.769531 C 167.722656 120.277344 161.328125 142.175781 170.4375 153.15625 C 172.433594 155.558594 172.996094 158.15625 172.039062 160.910156 Z M 172.039062 160.910156 "/>
<path style=" stroke:none;fill-rule:nonzero;fill:rgb(62.745098%,38.039216%,41.568627%);fill-opacity:1;" d="M 160.179688 82.96875 C 160.179688 89.289062 155.070312 94.414062 148.769531 94.414062 C 142.46875 94.414062 137.359375 89.289062 137.359375 82.96875 C 137.359375 76.648438 142.46875 71.527344 148.769531 71.527344 C 155.070312 71.527344 160.179688 76.648438 160.179688 82.96875 Z M 160.179688 82.96875 "/>
<path style=" stroke:none;fill-rule:nonzero;fill:rgb(18.431373%,18.039216%,25.490196%);fill-opacity:1;" d="M 161.679688 75.644531 C 163.269531 69.839844 145.96875 64.863281 142.605469 69.539062 C 142.136719 68.871094 140.410156 68.46875 139.617188 68.671875 C 138.824219 68.875 138.15625 69.386719 137.507812 69.878906 C 136.613281 70.570312 135.6875 71.28125 135.136719 72.273438 C 134.585938 73.257812 134.5 74.605469 135.242188 75.460938 C 135.832031 76.140625 136.867188 79.761719 137.753906 79.941406 C 138.371094 80.066406 138.894531 80.167969 139.339844 80.242188 C 139.738281 79.660156 140.753906 78.925781 140.679688 78.222656 C 141.28125 78.621094 141.0625 79.324219 140.941406 80.042969 C 140.539062 82.433594 131.4375 100.953125 136.648438 95.496094 C 137.167969 95.800781 137.804688 96.085938 138.539062 96.347656 C 139.789062 94.460938 140.8125 92.234375 141.488281 89.90625 L 141.492188 89.949219 C 141.726562 91.972656 143.199219 93.632812 145.148438 94.199219 C 152.972656 96.472656 159.300781 93.136719 161.480469 87.121094 C 160.683594 85.5 160.335938 85.675781 160.40625 85.628906 C 161.402344 84.953125 162.769531 85.394531 163.195312 86.519531 C 163.320312 86.851562 163.4375 87.132812 163.535156 87.347656 C 164.671875 83.277344 166.019531 83.863281 161.683594 75.644531 Z M 161.679688 75.644531 "/>
<path style=" stroke:none;fill-rule:nonzero;fill:rgb(18.431373%,18.039216%,25.490196%);fill-opacity:1;" d="M 156.285156 71.433594 L 155.484375 67.335938 C 155.417969 66.992188 155.355469 66.617188 155.507812 66.304688 C 155.707031 65.898438 156.21875 65.730469 156.664062 65.796875 C 157.109375 65.859375 157.441406 66.265625 157.886719 66.347656 C 159.425781 66.617188 161.460938 65.09375 162.011719 68.953125 C 162.242188 70.5625 164.800781 70.730469 165.65625 72.109375 C 166.511719 73.492188 166.613281 75.484375 165.449219 76.613281 C 164.515625 77.511719 163.019531 77.617188 161.8125 77.15625 C 160.601562 76.695312 159.628906 75.765625 158.78125 74.789062 C 157.933594 73.808594 157.164062 72.746094 156.1875 71.898438 "/>
<path style=" stroke:none;fill-rule:nonzero;fill:rgb(20.392157%,51.372549%,98.039216%);fill-opacity:1;" d="M 162.292969 77.667969 C 159.167969 77.230469 157.039062 76.089844 155.964844 74.28125 C 154.558594 71.914062 155.5 69.308594 155.542969 69.199219 L 156.203125 69.445312 C 156.195312 69.46875 155.339844 71.855469 156.574219 73.925781 C 157.535156 75.539062 159.492188 76.5625 162.386719 76.96875 Z M 162.292969 77.667969 "/>
<path style=" stroke:none;fill-rule:nonzero;fill:rgb(20.392157%,51.372549%,98.039216%);fill-opacity:1;" d="M 176.941406 33.390625 C 167.765625 33.390625 160.296875 25.898438 160.296875 16.695312 C 160.296875 7.488281 167.765625 0 176.941406 0 C 186.121094 0 193.589844 7.488281 193.589844 16.695312 C 193.589844 25.898438 186.121094 33.390625 176.941406 33.390625 Z M 176.941406 6.679688 C 171.433594 6.679688 166.953125 11.171875 166.953125 16.695312 C 166.953125 22.21875 171.433594 26.710938 176.941406 26.710938 C 182.449219 26.710938 186.929688 22.21875 186.929688 16.695312 C 186.929688 11.171875 182.449219 6.679688 176.941406 6.679688 Z M 176.941406 6.679688 "/>
<path style=" stroke:none;fill-rule:nonzero;fill:rgb(20.392157%,51.372549%,98.039216%);fill-opacity:1;" d="M 202.554688 44.734375 C 201.738281 44.734375 200.921875 44.4375 200.277344 43.832031 L 184.652344 29.148438 C 183.3125 27.886719 183.242188 25.773438 184.5 24.429688 C 185.757812 23.078125 187.863281 23.011719 189.207031 24.277344 L 204.828125 38.960938 C 206.171875 40.222656 206.242188 42.332031 204.984375 43.679688 C 204.328125 44.382812 203.441406 44.734375 202.554688 44.734375 Z M 202.554688 44.734375 "/>
<path style=" stroke:none;fill-rule:nonzero;fill:rgb(94.901961%,94.901961%,94.901961%);fill-opacity:1;" d="M 273.167969 273.726562 C 274.296875 273.796875 274.925781 272.386719 274.066406 271.566406 L 273.984375 271.226562 C 273.992188 271.199219 274.003906 271.171875 274.015625 271.144531 C 275.160156 268.40625 279.039062 268.425781 280.175781 271.167969 C 281.183594 273.601562 282.464844 276.039062 282.78125 278.613281 C 282.921875 279.746094 282.859375 280.902344 282.609375 282.019531 C 284.96875 276.847656 286.210938 271.199219 286.210938 265.523438 C 286.210938 264.09375 286.132812 262.667969 285.972656 261.246094 C 285.84375 260.082031 285.664062 258.921875 285.429688 257.777344 C 284.164062 251.582031 281.429688 245.679688 277.484375 240.75 C 275.585938 239.707031 274.003906 238.082031 273.050781 236.132812 C 272.707031 235.429688 272.4375 234.675781 272.308594 233.90625 C 272.527344 233.933594 273.125 230.636719 272.960938 230.433594 C 273.261719 229.976562 273.800781 229.75 274.128906 229.300781 C 275.761719 227.078125 278.015625 227.46875 279.1875 230.488281 C 281.699219 231.757812 281.722656 233.867188 280.183594 235.894531 C 279.203125 237.183594 279.070312 238.925781 278.210938 240.308594 C 278.296875 240.421875 278.390625 240.53125 278.476562 240.644531 C 280.101562 242.730469 281.503906 244.976562 282.6875 247.332031 C 282.351562 244.710938 282.847656 241.558594 283.6875 239.523438 C 284.644531 237.207031 286.441406 235.253906 288.023438 233.25 C 289.921875 230.84375 293.816406 231.894531 294.148438 234.945312 C 294.152344 234.976562 294.15625 235.003906 294.160156 235.035156 C 293.925781 235.167969 293.695312 235.308594 293.46875 235.457031 C 292.1875 236.308594 292.628906 238.300781 294.148438 238.535156 L 294.183594 238.539062 C 294.097656 239.390625 293.953125 240.230469 293.742188 241.058594 C 295.769531 248.921875 291.390625 251.789062 285.136719 251.917969 C 285 251.988281 284.867188 252.058594 284.726562 252.125 C 285.363281 253.914062 285.867188 255.75 286.242188 257.609375 C 286.578125 259.253906 286.8125 260.914062 286.941406 262.582031 C 287.105469 264.6875 287.09375 266.804688 286.914062 268.902344 L 286.925781 268.828125 C 287.375 266.515625 288.628906 264.355469 290.445312 262.855469 C 293.15625 260.625 296.984375 259.800781 299.910156 258.007812 C 301.316406 257.144531 303.117188 258.257812 302.875 259.894531 L 302.863281 259.972656 C 302.425781 260.152344 302 260.359375 301.589844 260.589844 C 301.355469 260.722656 301.125 260.863281 300.902344 261.011719 C 299.621094 261.863281 300.0625 263.855469 301.582031 264.089844 L 301.617188 264.09375 C 301.640625 264.097656 301.660156 264.101562 301.6875 264.105469 C 300.941406 265.882812 299.898438 267.535156 298.597656 268.957031 C 297.328125 275.824219 291.882812 276.476562 286.054688 274.476562 L 286.050781 274.476562 C 285.414062 277.257812 284.484375 279.976562 283.289062 282.570312 L 273.414062 282.570312 C 273.378906 282.457031 273.347656 282.34375 273.316406 282.234375 C 274.226562 282.292969 275.148438 282.238281 276.046875 282.070312 C 275.3125 281.171875 274.582031 280.261719 273.847656 279.359375 C 273.832031 279.34375 273.816406 279.324219 273.804688 279.308594 C 273.429688 278.84375 273.054688 278.386719 272.683594 277.925781 C 272.660156 276.507812 272.832031 275.097656 273.167969 273.726562 Z M 273.167969 273.726562 "/>
<path style=" stroke:none;fill-rule:nonzero;fill:rgb(80%,80%,80%);fill-opacity:1;" d="M 0 282.597656 C 0 282.960938 0.289062 283.253906 0.652344 283.253906 L 302.167969 283.253906 C 302.527344 283.253906 302.820312 282.960938 302.820312 282.597656 C 302.820312 282.234375 302.527344 281.945312 302.167969 281.945312 L 0.652344 281.945312 C 0.289062 281.945312 0 282.234375 0 282.597656 Z M 0 282.597656 "/>
</g>
</svg>
